<svg width="151" height="152" viewBox="0 0 151 152" fill="none" xmlns="http://www.w3.org/2000/svg">
<circle cx="75.5" cy="76" r="75.5" fill="#010F30"/>
<path d="M149 76C150.105 76 151.003 75.1042 150.974 74C150.521 56.9188 144.285 40.4729 133.254 27.3718C121.793 13.7601 105.893 4.63373 88.3588 1.60312C70.8246 -1.4275 52.7835 1.83237 37.4187 10.8075C22.0538 19.7827 10.3528 33.8963 4.3801 50.6582C-1.59257 67.42 -1.45301 85.7528 4.77416 102.422C11.0013 119.091 22.9159 133.025 38.4156 141.765C53.9153 150.505 72.004 153.49 89.49 150.193C106.32 147.019 121.551 138.222 132.703 125.276C133.423 124.439 133.294 123.177 132.438 122.479L79.8481 79.5494C78.3912 78.3601 79.2321 76 81.1128 76H149Z" fill="url(#paint0_linear_48_43)"/>
<path d="M117.74 89.28H119.5C120.833 89.28 121.96 89.68 122.88 90.48C123.8 91.2667 124.26 92.36 124.26 93.76C124.26 95.16 123.787 96.26 122.84 97.06C121.907 97.86 120.747 98.26 119.36 98.26C118.227 98.26 117.24 98 116.4 97.48C115.56 96.96 114.96 96.22 114.6 95.26L116.58 94.12C116.967 95.3867 117.893 96.02 119.36 96.02C120.147 96.02 120.773 95.82 121.24 95.42C121.72 95.0067 121.96 94.4533 121.96 93.76C121.96 93.08 121.727 92.54 121.26 92.14C120.793 91.7267 120.173 91.52 119.4 91.52H115.32L115.86 84H123.66V86.16H117.98L117.74 89.28ZM131.108 84.66C131.734 85.2867 132.048 86.0467 132.048 86.94C132.048 87.8333 131.734 88.5933 131.108 89.22C130.494 89.8333 129.721 90.14 128.788 90.14C127.841 90.14 127.061 89.8333 126.448 89.22C125.821 88.5933 125.508 87.8333 125.508 86.94C125.508 86.06 125.821 85.3067 126.448 84.68C127.074 84.0533 127.854 83.74 128.788 83.74C129.721 83.74 130.494 84.0467 131.108 84.66ZM128.768 88.38C129.194 88.38 129.541 88.2467 129.808 87.98C130.074 87.7 130.208 87.3533 130.208 86.94C130.208 86.5267 130.074 86.18 129.808 85.9C129.541 85.62 129.194 85.48 128.768 85.48C128.354 85.48 128.014 85.62 127.748 85.9C127.481 86.18 127.348 86.5267 127.348 86.94C127.348 87.34 127.481 87.68 127.748 87.96C128.028 88.24 128.368 88.38 128.768 88.38ZM127.768 96.58L126.688 95.94L135.908 85.68L136.988 86.3L127.768 96.58ZM135.188 98.24C134.241 98.24 133.461 97.9333 132.848 97.32C132.221 96.6933 131.908 95.9333 131.908 95.04C131.908 94.16 132.221 93.4067 132.848 92.78C133.474 92.1533 134.254 91.84 135.188 91.84C136.108 91.84 136.881 92.1533 137.508 92.78C138.134 93.4067 138.448 94.16 138.448 95.04C138.448 95.9333 138.134 96.6933 137.508 97.32C136.894 97.9333 136.121 98.24 135.188 98.24ZM135.168 96.48C135.594 96.48 135.941 96.3467 136.208 96.08C136.474 95.8 136.608 95.4533 136.608 95.04C136.608 94.6267 136.474 94.28 136.208 94C135.941 93.72 135.594 93.58 135.168 93.58C134.754 93.58 134.414 93.72 134.148 94C133.881 94.28 133.748 94.6267 133.748 95.04C133.748 95.44 133.881 95.78 134.148 96.06C134.428 96.34 134.768 96.48 135.168 96.48Z" fill="url(#paint1_linear_48_43)"/>
<path d="M33.4 51.52C33.4 52.5867 33.12 53.5267 32.56 54.34L28.14 61H25.5L28.7 56.3H28.46C27.0067 56.3 25.8133 55.86 24.88 54.98C23.96 54.0867 23.5 52.9333 23.5 51.52C23.5 50.1067 23.96 48.96 24.88 48.08C25.8133 47.1867 27.0067 46.74 28.46 46.74C29.9267 46.74 31.1133 47.1867 32.02 48.08C32.94 48.96 33.4 50.1067 33.4 51.52ZM25.8 51.52C25.8 52.28 26.0467 52.9067 26.54 53.4C27.0467 53.88 27.6867 54.12 28.46 54.12C29.2333 54.12 29.8667 53.8867 30.36 53.42C30.8533 52.94 31.1 52.3067 31.1 51.52C31.1 50.7333 30.8533 50.1067 30.36 49.64C29.8667 49.16 29.2333 48.92 28.46 48.92C27.6867 48.92 27.0467 49.16 26.54 49.64C26.0467 50.1067 25.8 50.7333 25.8 51.52ZM36.8572 52.28H38.6172C39.9505 52.28 41.0772 52.68 41.9972 53.48C42.9172 54.2667 43.3772 55.36 43.3772 56.76C43.3772 58.16 42.9039 59.26 41.9572 60.06C41.0239 60.86 39.8639 61.26 38.4772 61.26C37.3439 61.26 36.3572 61 35.5172 60.48C34.6772 59.96 34.0772 59.22 33.7172 58.26L35.6972 57.12C36.0839 58.3867 37.0105 59.02 38.4772 59.02C39.2639 59.02 39.8905 58.82 40.3572 58.42C40.8372 58.0067 41.0772 57.4533 41.0772 56.76C41.0772 56.08 40.8439 55.54 40.3772 55.14C39.9105 54.7267 39.2905 54.52 38.5172 54.52H34.4372L34.9772 47H42.7772V49.16H37.0972L36.8572 52.28ZM50.225 47.66C50.8517 48.2867 51.165 49.0467 51.165 49.94C51.165 50.8333 50.8517 51.5933 50.225 52.22C49.6117 52.8333 48.8383 53.14 47.905 53.14C46.9583 53.14 46.1783 52.8333 45.565 52.22C44.9383 51.5933 44.625 50.8333 44.625 49.94C44.625 49.06 44.9383 48.3067 45.565 47.68C46.1917 47.0533 46.9717 46.74 47.905 46.74C48.8383 46.74 49.6117 47.0467 50.225 47.66ZM47.885 51.38C48.3117 51.38 48.6583 51.2467 48.925 50.98C49.1917 50.7 49.325 50.3533 49.325 49.94C49.325 49.5267 49.1917 49.18 48.925 48.9C48.6583 48.62 48.3117 48.48 47.885 48.48C47.4717 48.48 47.1317 48.62 46.865 48.9C46.5983 49.18 46.465 49.5267 46.465 49.94C46.465 50.34 46.5983 50.68 46.865 50.96C47.145 51.24 47.485 51.38 47.885 51.38ZM46.885 59.58L45.805 58.94L55.025 48.68L56.105 49.3L46.885 59.58ZM54.305 61.24C53.3583 61.24 52.5783 60.9333 51.965 60.32C51.3383 59.6933 51.025 58.9333 51.025 58.04C51.025 57.16 51.3383 56.4067 51.965 55.78C52.5917 55.1533 53.3717 54.84 54.305 54.84C55.225 54.84 55.9983 55.1533 56.625 55.78C57.2517 56.4067 57.565 57.16 57.565 58.04C57.565 58.9333 57.2517 59.6933 56.625 60.32C56.0117 60.9333 55.2383 61.24 54.305 61.24ZM54.285 59.48C54.7117 59.48 55.0583 59.3467 55.325 59.08C55.5917 58.8 55.725 58.4533 55.725 58.04C55.725 57.6267 55.5917 57.28 55.325 57C55.0583 56.72 54.7117 56.58 54.285 56.58C53.8717 56.58 53.5317 56.72 53.265 57C52.9983 57.28 52.865 57.6267 52.865 58.04C52.865 58.44 52.9983 58.78 53.265 59.06C53.545 59.34 53.885 59.48 54.285 59.48Z" fill="url(#paint2_linear_48_43)"/>
<defs>
<linearGradient id="paint0_linear_48_43" x1="127" y1="13" x2="28" y2="146.5" gradientUnits="userSpaceOnUse">
<stop stop-color="#8AFFBD"/>
<stop offset="1" stop-color="#35C875"/>
</linearGradient>
<linearGradient id="paint1_linear_48_43" x1="114" y1="80" x2="141.031" y2="81.169" gradientUnits="userSpaceOnUse">
<stop stop-color="white" stop-opacity="0.7"/>
<stop offset="1" stop-color="white"/>
<stop offset="1" stop-color="white"/>
</linearGradient>
<linearGradient id="paint2_linear_48_43" x1="23" y1="43" x2="60.363" y2="45.2373" gradientUnits="userSpaceOnUse">
<stop stop-color="white" stop-opacity="0.82"/>
<stop offset="1" stop-color="white"/>
<stop offset="1" stop-color="white"/>
</linearGradient>
</defs>
</svg>
