<svg width="19" height="25" viewBox="0 0 19 25" fill="none" xmlns="http://www.w3.org/2000/svg">
<path d="M9 14.25C11.8406 14.25 14.1429 12.0117 14.1429 9.25C14.1429 6.48828 11.8406 4.25 9 4.25C6.15938 4.25 3.85714 6.48828 3.85714 9.25C3.85714 12.0117 6.15938 14.25 9 14.25ZM12.6 15.5H11.929C11.0371 15.8984 10.0446 16.125 9 16.125C7.95536 16.125 6.96696 15.8984 6.07098 15.5H5.4C2.41875 15.5 0 17.8516 0 20.75V22.375C0 23.4102 0.863839 24.25 1.92857 24.25H16.0714C17.1362 24.25 18 23.4102 18 22.375V20.75C18 17.8516 15.5813 15.5 12.6 15.5Z" fill="#91A4B7"/>
<path d="M17.1188 8.56399L17.1182 8.56449C17.0135 8.65929 16.9604 8.73393 16.9353 8.7888L16.935 8.78942L16.427 9.89503L16.4269 9.89523C16.3738 10.0108 16.295 10.1099 16.1993 10.1875C16.2147 10.2 16.2297 10.2131 16.2443 10.2268C16.4038 10.3763 16.5 10.5862 16.5 10.8125C16.5 11.0388 16.4038 11.2487 16.2443 11.3982C16.1727 11.4654 16.091 11.5181 16.0033 11.5558L15.9586 11.6396L17.1188 8.56399ZM17.1188 8.56399C17.6542 8.07791 18.0558 7.47233 18.2845 6.79974C18.5132 6.12693 18.5609 5.41042 18.4226 4.71515C18.2844 4.02003 17.9652 3.3708 17.4968 2.82467C17.0286 2.27872 16.4261 1.85291 15.7448 1.58236C15.0637 1.31185 14.3231 1.20414 13.5887 1.26779C12.8542 1.33144 12.1459 1.56473 11.5272 1.94894C10.9084 2.33323 10.3972 2.85741 10.0422 3.47716C9.68708 4.09706 9.50003 4.79207 9.5 5.4998M17.1188 8.56399L11.7557 11.3982M11.9995 10.068L11.8877 10.2496C12.0226 10.3326 12.1774 10.3751 12.3333 10.375V10C12.2187 10 12.1049 10.0231 11.9995 10.068ZM11.9995 10.068C11.9286 10.0982 11.8614 10.1382 11.8004 10.1877M11.9995 10.068L11.8877 10.2496C11.8573 10.2309 11.8282 10.2102 11.8004 10.1877M11.8004 10.1877C11.7851 10.2002 11.7702 10.2132 11.7557 10.2268C11.5962 10.3763 11.5 10.5862 11.5 10.8125C11.5 11.0388 11.5962 11.2487 11.7557 11.3982M11.8004 10.1877C11.7045 10.1102 11.6256 10.0109 11.5724 9.89523L11.5722 9.89471L11.0686 8.79658C11.0265 8.7141 10.9669 8.63787 10.8915 8.57301L10.8816 8.56449L10.8817 8.56437C10.4465 8.17018 10.0985 7.69597 9.86043 7.16906C9.62231 6.64214 9.49937 6.07431 9.5 5.4998M11.7557 11.3982C11.8273 11.4654 11.909 11.5181 11.9967 11.5558L12.0414 11.6396L11.7557 11.3982ZM9.5 5.4998C9.5 5.4997 9.5 5.49959 9.5 5.49949L10 5.50007L9.5 5.50009C9.5 5.49999 9.5 5.4999 9.5 5.4998ZM14.9216 12.25H14.9213H13.0787H13.0784C12.8682 12.2499 12.6602 12.195 12.4775 12.0891C12.2947 11.9831 12.1424 11.8288 12.0417 11.6401L14.9216 12.25ZM14.9216 12.25C15.1318 12.2499 15.3398 12.195 15.5225 12.0891C15.7053 11.9831 15.8576 11.8288 15.9583 11.6401L14.9216 12.25Z" fill="#91A4B7" stroke="#EDF2F6"/>
</svg>
