<svg width="32" height="32" viewBox="0 0 32 32" fill="none" xmlns="http://www.w3.org/2000/svg">
<path d="M20.9829 23.0852C21.5687 23.671 21.5737 24.6294 20.9195 25.1376C19.7638 26.0353 18.4501 26.7167 17.0416 27.144C15.1531 27.7168 13.1525 27.8151 11.217 27.4301C9.28146 27.0451 7.47074 26.1887 5.94524 24.9368C4.41974 23.6848 3.22654 22.076 2.47133 20.2527C1.71612 18.4295 1.42221 16.4481 1.61565 14.4842C1.80908 12.5202 2.48388 10.6343 3.58027 8.99343C4.67666 7.35256 6.16081 6.00741 7.90124 5.07713C9.19929 4.38331 10.61 3.93623 12.062 3.75378C12.884 3.6505 13.5581 4.33173 13.5581 5.16016V15.0391C13.5581 15.4369 13.7162 15.8185 13.9975 16.0998L20.9829 23.0852Z" fill="#91A4B7"/>
<path d="M14.9536 3.54365C14.9536 2.99137 15.4021 2.53933 15.9525 2.5853C17.1862 2.68834 18.3985 2.98184 19.5459 3.45712C21.0019 4.06019 22.3248 4.94412 23.4391 6.05845C24.5534 7.17278 25.4374 8.49568 26.0404 9.95162C26.5157 11.099 26.8092 12.3114 26.9123 13.5451C26.9582 14.0954 26.5062 14.5439 25.9539 14.5439L15.9536 14.5439C15.4014 14.5439 14.9536 14.0962 14.9536 13.5439L14.9536 3.54365Z" fill="#91A4B7"/>
<path d="M26.6123 15.9954C26.8885 15.9953 27.1136 16.2192 27.1015 16.4951C27.0012 18.7913 26.205 21.0034 24.8189 22.8369C24.6524 23.0572 24.3363 23.0862 24.1235 22.9102L16.8435 16.8846C16.4827 16.5859 16.6937 15.9996 17.1621 15.9994L26.6123 15.9954Z" fill="#91A4B7"/>
</svg>
