<svg width="12" height="14" viewBox="0 0 12 14" fill="none" xmlns="http://www.w3.org/2000/svg">
<path d="M11.7477 9.66594C11.6959 9.60344 11.645 9.54094 11.595 9.48063C10.9081 8.64906 10.4925 8.14719 10.4925 5.79313C10.4925 4.57438 10.2012 3.57437 9.62702 2.82437C9.20362 2.27031 8.6313 1.85 7.87693 1.53938C7.86722 1.53397 7.85855 1.52688 7.85133 1.51844C7.57999 0.609062 6.8375 0 6.00008 0C5.16266 0 4.42047 0.609062 4.14914 1.5175C4.1419 1.52563 4.13335 1.5325 4.12385 1.53781C2.36346 2.26312 1.50793 3.65469 1.50793 5.79219C1.50793 8.14719 1.09297 8.64906 0.405422 9.47969C0.355464 9.54 0.304569 9.60125 0.252738 9.665C0.118851 9.8266 0.0340228 10.0232 0.0082921 10.2316C-0.0174386 10.4399 0.0170054 10.6513 0.107548 10.8406C0.300198 11.2469 0.710789 11.4991 1.17946 11.4991H10.8241C11.2906 11.4991 11.6984 11.2472 11.8917 10.8428C11.9826 10.6534 12.0174 10.4419 11.9919 10.2333C11.9664 10.0247 11.8816 9.8278 11.7477 9.66594ZM6.00008 14C6.45127 13.9996 6.89395 13.8771 7.28117 13.6453C7.66839 13.4135 7.98571 13.0811 8.19947 12.6834C8.20954 12.6644 8.21452 12.643 8.21391 12.6215C8.21331 12.5999 8.20714 12.5789 8.19602 12.5604C8.18489 12.542 8.16919 12.5267 8.15042 12.5161C8.13166 12.5055 8.11048 12.5 8.08894 12.5H3.91184C3.89027 12.4999 3.86905 12.5054 3.85025 12.516C3.83144 12.5266 3.81569 12.5418 3.80453 12.5603C3.79337 12.5788 3.78718 12.5998 3.78656 12.6214C3.78594 12.643 3.79091 12.6644 3.801 12.6834C4.01473 13.0811 4.332 13.4134 4.71916 13.6452C5.10632 13.877 5.54894 13.9996 6.00008 14Z" fill="#33C773"/>
</svg>
