<svg width="22" height="19" viewBox="0 0 22 19" fill="none" xmlns="http://www.w3.org/2000/svg">
<path fill-rule="evenodd" clip-rule="evenodd" d="M8.5 3.5C8.5 2.39543 9.39543 1.5 10.5 1.5H11.5C12.6046 1.5 13.5 2.39543 13.5 3.5H8.5ZM7.5 3.5C7.5 1.84315 8.84315 0.5 10.5 0.5H11.5C13.1569 0.5 14.5 1.84315 14.5 3.5H20C21.1046 3.5 22 4.39543 22 5.5V8L11.6835 11.7515C11.242 11.912 10.758 11.912 10.3165 11.7515L0 8V5.5C0 4.39543 0.895431 3.5 2 3.5H7.5ZM0 9L10.3165 12.7515C10.758 12.912 11.242 12.912 11.6835 12.7515L22 9V16.5C22 17.6046 21.1046 18.5 20 18.5H2C0.89543 18.5 0 17.6046 0 16.5V9Z" fill="#91A4B7"/>
</svg>
