<svg width="29" height="20" viewBox="0 0 29 20" fill="none" xmlns="http://www.w3.org/2000/svg">
<path d="M4.74932 8.57143C6.29369 8.57143 7.54932 7.29018 7.54932 5.71429C7.54932 4.13839 6.29369 2.85714 4.74932 2.85714C3.20494 2.85714 1.94932 4.13839 1.94932 5.71429C1.94932 7.29018 3.20494 8.57143 4.74932 8.57143ZM24.3493 8.57143C25.8937 8.57143 27.1493 7.29018 27.1493 5.71429C27.1493 4.13839 25.8937 2.85714 24.3493 2.85714C22.8049 2.85714 21.5493 4.13839 21.5493 5.71429C21.5493 7.29018 22.8049 8.57143 24.3493 8.57143ZM25.7493 10H22.9493C22.1793 10 21.4837 10.317 20.9762 10.8304C22.7393 11.817 23.9906 13.5982 24.2618 15.7143H27.1493C27.9237 15.7143 28.5493 15.0759 28.5493 14.2857V12.8571C28.5493 11.2812 27.2937 10 25.7493 10ZM14.5493 10C17.2574 10 19.4493 7.76339 19.4493 5C19.4493 2.23661 17.2574 0 14.5493 0C11.8412 0 9.64932 2.23661 9.64932 5C9.64932 7.76339 11.8412 10 14.5493 10ZM17.9093 11.4286H17.5462C16.6362 11.875 15.6256 12.1429 14.5493 12.1429C13.4731 12.1429 12.4668 11.875 11.5524 11.4286H11.1893C8.40682 11.4286 6.14932 13.7321 6.14932 16.5714V17.8571C6.14932 19.0402 7.08994 20 8.24932 20H20.8493C22.0087 20 22.9493 19.0402 22.9493 17.8571V16.5714C22.9493 13.7321 20.6918 11.4286 17.9093 11.4286ZM8.12244 10.8304C7.61494 10.317 6.91932 10 6.14932 10H3.34932C1.80494 10 0.549316 11.2812 0.549316 12.8571V14.2857C0.549316 15.0759 1.17494 15.7143 1.94932 15.7143H4.83244C5.10807 13.5982 6.35932 11.817 8.12244 10.8304Z" fill="#91A4B7"/>
</svg>
