<svg width="22" height="20" viewBox="0 0 22 20" fill="none" xmlns="http://www.w3.org/2000/svg">
<path fill-rule="evenodd" clip-rule="evenodd" d="M0 1.5C0 0.671573 0.671573 0 1.5 0H20.5C21.3284 0 22 0.671573 22 1.5V3.5H0V1.5ZM2 1.5C2 1.22386 2.22386 1 2.5 1H9.5C9.77614 1 10 1.22386 10 1.5C10 1.77614 9.77614 2 9.5 2H2.5C2.22386 2 2 1.77614 2 1.5ZM13.5 1C13.2239 1 13 1.22386 13 1.5C13 1.77614 13.2239 2 13.5 2H14.5C14.7761 2 15 1.77614 15 1.5C15 1.22386 14.7761 1 14.5 1H13.5ZM16 1.5C16 1.22386 16.2239 1 16.5 1H17.5C17.7761 1 18 1.22386 18 1.5C18 1.77614 17.7761 2 17.5 2H16.5C16.2239 2 16 1.77614 16 1.5ZM19.5 1C19.2239 1 19 1.22386 19 1.5C19 1.77614 19.2239 2 19.5 2H20.5C20.7761 2 21 1.77614 21 1.5C21 1.22386 20.7761 1 20.5 1H19.5Z" fill="#91A4B7"/>
<path fill-rule="evenodd" clip-rule="evenodd" d="M0 5H22V18.5C22 19.3284 21.3284 20 20.5 20H1.5C0.671573 20 0 19.3284 0 18.5V5ZM4.30979 14.5854C4.36966 14.4011 4.63034 14.4011 4.69021 14.5854L5.01638 15.5893C5.04316 15.6717 5.11995 15.7275 5.20659 15.7275H6.2621C6.45585 15.7275 6.5364 15.9754 6.37966 16.0893L5.52574 16.7097C5.45564 16.7606 5.42631 16.8509 5.45308 16.9333L5.77925 17.9371C5.83912 18.1214 5.62823 18.2746 5.47148 18.1607L4.61756 17.5403C4.54746 17.4894 4.45254 17.4894 4.38244 17.5403L3.52852 18.1607C3.37177 18.2746 3.16088 18.1214 3.22075 17.9371L3.54692 16.9333C3.57369 16.8509 3.54436 16.7606 3.47426 16.7097L2.62034 16.0893C2.4636 15.9754 2.54415 15.7275 2.7379 15.7275H3.79341C3.88005 15.7275 3.95684 15.6717 3.98362 15.5893L4.30979 14.5854ZM9.69021 14.5854C9.63034 14.4011 9.36966 14.4011 9.30979 14.5854L8.98362 15.5893C8.95684 15.6717 8.88005 15.7275 8.79341 15.7275H7.7379C7.54415 15.7275 7.4636 15.9754 7.62034 16.0893L8.47427 16.7097C8.54436 16.7606 8.57369 16.8509 8.54692 16.9333L8.22075 17.9371C8.16088 18.1214 8.37177 18.2746 8.52852 18.1607L9.38244 17.5403C9.45254 17.4894 9.54746 17.4894 9.61756 17.5403L10.4715 18.1607C10.6282 18.2746 10.8391 18.1214 10.7793 17.9371L10.4531 16.9333C10.4263 16.8509 10.4556 16.7606 10.5257 16.7097L11.3797 16.0893C11.5364 15.9754 11.4558 15.7275 11.2621 15.7275H10.2066C10.1199 15.7275 10.0432 15.6717 10.0164 15.5893L9.69021 14.5854ZM15.3098 14.5854C15.3697 14.4011 15.6303 14.4011 15.6902 14.5854L16.0164 15.5893C16.0432 15.6717 16.1199 15.7275 16.2066 15.7275H17.2621C17.4558 15.7275 17.5364 15.9754 17.3797 16.0893L16.5257 16.7097C16.4556 16.7606 16.4263 16.8509 16.4531 16.9333L16.7793 17.9371C16.8391 18.1214 16.6282 18.2746 16.4715 18.1607L15.6176 17.5403C15.5475 17.4894 15.4525 17.4894 15.3824 17.5403L14.5285 18.1607C14.3718 18.2746 14.1609 18.1214 14.2207 17.9371L14.5469 16.9333C14.5737 16.8509 14.5444 16.7606 14.4743 16.7097L13.6203 16.0893C13.4636 15.9754 13.5442 15.7275 13.7379 15.7275H14.7934C14.8801 15.7275 14.9568 15.6717 14.9836 15.5893L15.3098 14.5854ZM5.43 9.157H4.512L4.62 7.483H7.311V6.7H3.864L3.63 9.967H5.412C5.802 9.967 6.117 10.072 6.357 10.282C6.603 10.492 6.726 10.777 6.726 11.137C6.726 11.497 6.603 11.782 6.357 11.992C6.117 12.196 5.796 12.298 5.394 12.298C5.046 12.298 4.752 12.217 4.512 12.055C4.272 11.893 4.11 11.662 4.026 11.362L3.315 11.767C3.459 12.193 3.717 12.526 4.089 12.766C4.467 13 4.902 13.117 5.394 13.117C5.988 13.117 6.498 12.94 6.924 12.586C7.344 12.238 7.554 11.755 7.554 11.137C7.554 10.525 7.347 10.042 6.933 9.688C6.525 9.334 6.024 9.157 5.43 9.157ZM12.2787 9.472H10.7127V7.915H9.96572V9.472H8.40872V10.219H9.96572V11.785H10.7127V10.219H12.2787V9.472Z" fill="#91A4B7"/>
</svg>
